<svg width="12" height="14" viewBox="0 0 12 14" fill="none" xmlns="http://www.w3.org/2000/svg">
<path d="M5.99659 0C5.38359 0 4.97492 0.460094 4.97492 1.13928V9.09233L5.03622 10.6771L3.75573 9.08503L2.20279 7.41993C2.01889 7.22274 1.7805 7.07668 1.47399 7.07668C0.922291 7.07668 0.5 7.50756 0.5 8.13563C0.5 8.42045 0.608978 8.69066 0.820124 8.92436L5.24056 13.6714C5.43127 13.8758 5.71734 14 5.99659 14C6.27585 14 6.56192 13.8758 6.75263 13.6714L11.1799 8.92436C11.391 8.69066 11.5 8.42045 11.5 8.13563C11.5 7.50756 11.0777 7.07668 10.526 7.07668C10.2195 7.07668 9.98111 7.22274 9.7904 7.41993L8.23746 9.08503L6.95697 10.6771L7.02508 9.09233V1.13928C7.02508 0.460094 6.6096 0 5.99659 0Z" fill="#8E8E93"/>
</svg>
